<svg width="20" height="20" viewBox="0 0 20 20" fill="none" xmlns="http://www.w3.org/2000/svg">
    <path d="M17.5024 12.7826C17.824 11.9159 18 10.9786 18 10C18 9.02144 17.824 8.08406 17.5024 7.21741H2.49759C2.17603 8.08406 2 9.02144 2 10C2 10.9786 2.17603 11.9159 2.49759 12.7826L10 13.4783L17.5024 12.7826Z" fill="#0052B4"/>
    <path d="M10.0005 18C13.4402 18 16.3725 15.829 17.5029 12.7826H2.49805C3.62839 15.829 6.56073 18 10.0005 18Z" fill="#D80027"/>
    <path d="M9.99955 2C6.55983 2 3.62749 4.171 2.49714 7.21741H17.502C16.3716 4.171 13.4393 2 9.99955 2Z" fill="white"/>
    <rect x="1" y="1" width="18" height="18" rx="9" stroke="#0C1032" stroke-opacity="0.15" stroke-width="2"/>
</svg>