<svg width="20" height="20" viewBox="0 0 20 20" fill="none" xmlns="http://www.w3.org/2000/svg">
    <circle cx="10" cy="10" r="8" fill="white"/>
    <path d="M3.65355 5.12909C3.02514 5.94668 2.5513 6.88903 2.27539 7.91275H6.4372L3.65355 5.12909Z" fill="#0052B4"/>
    <path d="M17.7242 7.91278C17.4483 6.88909 16.9745 5.94675 16.3461 5.12915L13.5625 7.91278H17.7242Z" fill="#0052B4"/>
    <path d="M2.27539 12.0869C2.55133 13.1106 3.02517 14.0529 3.65355 14.8705L6.43711 12.0869H2.27539Z" fill="#0052B4"/>
    <path d="M14.8705 3.65358C14.0529 3.02517 13.1106 2.55133 12.0869 2.27539V6.43717L14.8705 3.65358Z" fill="#0052B4"/>
    <path d="M5.12891 16.3463C5.9465 16.9747 6.88884 17.4486 7.91253 17.7245V13.5627L5.12891 16.3463Z" fill="#0052B4"/>
    <path d="M7.9125 2.27539C6.88881 2.55133 5.94647 3.02517 5.12891 3.65355L7.9125 6.43714V2.27539Z" fill="#0052B4"/>
    <path d="M12.0869 17.7245C13.1106 17.4486 14.0529 16.9747 14.8705 16.3463L12.0869 13.5627V17.7245Z" fill="#0052B4"/>
    <path d="M13.5625 12.0869L16.3461 14.8705C16.9745 14.053 17.4483 13.1106 17.7242 12.0869H13.5625Z" fill="#0052B4"/>
    <path d="M17.9323 8.95653H11.0435H11.0435V2.06772C10.7019 2.02325 10.3537 2 10 2C9.64628 2 9.29809 2.02325 8.95653 2.06772V8.95647V8.9565H2.06772C2.02325 9.29809 2 9.64634 2 10C2 10.3537 2.02325 10.7019 2.06772 11.0435H8.95647H8.9565V17.9323C9.29809 17.9768 9.64628 18 10 18C10.3537 18 10.7019 17.9768 11.0435 17.9323V11.0435V11.0435H17.9323C17.9768 10.7019 18 10.3537 18 10C18 9.64634 17.9768 9.29809 17.9323 8.95653Z" fill="#D80027"/>
    <path d="M12.0869 12.0869L15.6568 15.6568C15.821 15.4926 15.9776 15.321 16.127 15.1432L13.0707 12.0869H12.0869V12.0869Z" fill="#D80027"/>
    <path d="M7.91267 12.0869H7.91261L4.34277 15.6568C4.5069 15.8209 4.67849 15.9776 4.85637 16.127L7.91267 13.0706V12.0869Z" fill="#D80027"/>
    <path d="M7.91317 7.91281V7.91275L4.3433 4.34283C4.17911 4.50696 4.02248 4.67855 3.87305 4.85643L6.92939 7.91278H7.91317V7.91281Z" fill="#D80027"/>
    <path d="M12.0869 7.91332L15.6568 4.34339C15.4927 4.1792 15.3211 4.02258 15.1432 3.87317L12.0869 6.92951V7.91332Z" fill="#D80027"/>
    <rect x="1" y="1" width="18" height="18" rx="9" stroke="#0C1032" stroke-opacity="0.15" stroke-width="2"/>
</svg>